# xmcd
#
# Track frame offsets: 
#        150
#        19032
#        35517
#        56627
#        81042
#        103217
#        121025
#        130287
#        139262
#        154392
#        173690
#        188832
#        205485
#        219890
#        240992
#        258742
#        284410
#        310085
#
# Disc length: 4427 seconds
#
# Revision: 4
# Processed by: cddbd v1.5.2PL0 Copyright (c) Steve Scherf et al.
# Submitted via: ExactAudioCopy v0.90b4
#
DISCID=02114912
DTITLE=Bill Withers - The Best Of Bill Withers (Lean On Me)
DYEAR=2000
DGENRE=R&B
TTITLE0=Lovely Day
TTITLE1=I Want To Spend The Night
TTITLE2=Let Me Be The One You Need
TTITLE3=Hello Like Before
TTITLE4=Tender Things
TTITLE5=I Wish You Well
TTITLE6=Ain't No Sunshine
TTITLE7=Grandma's Hands
TTITLE8=The Same Love That Made Me Laugh
TTITLE9=Lean On Me
TTITLE10=Harlem
TTITLE11=Use Me
TTITLE12=Who Is He (And What Is He To You?)
TTITLE13=You Just Can't Smile It Away
TTITLE14=Just The Two Of Us [Duet with Grover Washington, Jr.]
TTITLE15=Steppin' Right Along
TTITLE16=You Try To Find A Love
TTITLE17=My Imagination
EXTD=
EXTT0=
EXTT1=
EXTT2=
EXTT3=
EXTT4=
EXTT5=
EXTT6=
EXTT7=
EXTT8=
EXTT9=
EXTT10=
EXTT11=
EXTT12=
EXTT13=
EXTT14=
EXTT15=
EXTT16=
EXTT17=
PLAYORDER=
